<?xml version="1.0" encoding="utf-8"?>
<!-- Generator: Adobe Illustrator 19.0.0, SVG Export Plug-In . SVG Version: 6.00 Build 0)  -->
<svg version="1.1" xmlns="http://www.w3.org/2000/svg" xmlns:xlink="http://www.w3.org/1999/xlink" x="0px" y="0px"
	 viewBox="0 0 123.4 118.4" style="enable-background:new 0 0 123.4 118.4;" xml:space="preserve">
<g id="Layer_1">
</g>
<g id="Layer_2">
	<g id="XMLID_2_">
		<path id="XMLID_3_" d="M1.7,98.3h45.4c1.5,0,2.8-0.2,3.6-0.7c0.9-0.5,1.6-1.1,2.1-1.9c0.5-0.8,0.8-1.6,0.9-2.6
			c0.1-0.9,0.2-1.8,0.2-2.6c0-1.4-0.4-2.9-1.1-4.3c-0.7-1.4-2.2-2.1-4.4-2.1H22.5c-4,0-7.3-0.6-10.1-1.9c-2.8-1.3-5-3-6.6-5.3
			c-1.7-2.3-2.9-5-3.6-8.1C1.4,65.7,1,62.2,1,58.5c0-5.5,0.6-10,1.9-13.4c1.3-3.4,3.2-6.1,5.8-7.9c2.6-1.9,5.9-3.1,9.9-3.8
			c4-0.7,8.8-1,14.5-1h35.7c1.1,0,1.7,0.6,1.7,1.7v16.8c0,1.1-0.6,1.7-1.7,1.7H25.4c-1.8,0-3,0.6-3.8,1.9c-0.8,1.3-1.2,2.7-1.2,4.2
			c0,1.4,0.4,2.9,1.2,4.3c0.8,1.4,2.1,2.1,3.7,2.1h24.1c4.3,0,8,0.5,11.1,1.4c3.1,0.9,5.6,2.5,7.5,4.7c1.9,2.2,3.4,5.2,4.3,9
			c0.9,3.8,1.4,8.6,1.4,14.3c0,1.7-0.2,3.8-0.7,6.5c-0.5,2.7-1.4,5.3-2.7,7.9c-1.3,2.6-3.2,4.8-5.5,6.7c-2.4,1.9-5.4,2.8-9.2,2.8
			h-54c-1.1,0-1.7-0.5-1.7-1.7V99.9C0,98.8,0.5,98.3,1.7,98.3z"/>
		<path id="XMLID_5_" d="M99.3,30.7c0,1.1,0.5,1.7,1.7,1.7h13.5c1.1,0,1.7,0.6,1.7,1.7v16.8c0,1.1-0.6,1.7-1.7,1.7h-13.5
			c-1.1,0-1.7,0.6-1.7,1.7v62.6c0,1.1-0.6,1.7-1.7,1.7H80.8c-1.1,0-1.7-0.5-1.7-1.7V54.2c0-1.1-0.6-1.7-1.7-1.7h-8.8
			c-1.1,0-1.7-0.5-1.7-1.7V34c0-1.1,0.5-1.7,1.7-1.7h8.8c1.1,0,1.7-0.5,1.7-1.7V20.3c0-2.4,0.6-4.9,1.7-7.4c1.2-2.5,2.6-4.7,4.5-6.5
			c1.8-1.9,3.9-3.4,6.1-4.6C93.7,0.6,95.9,0,98.1,0h23.6c1.1,0,1.7,0.6,1.7,1.7v16.8c0,1.1-0.4,1.7-1.3,1.7h-16.2
			c-0.6,0-1.2,0.2-2,0.7c-0.8,0.5-1.5,1.1-2.1,1.8c-0.7,0.7-1.2,1.5-1.7,2.3c-0.5,0.8-0.7,1.6-0.7,2.2V30.7z"/>
	</g>
</g>
</svg>
